<?xml version="1.0" encoding="UTF-8"?><svg id="VISIBLE" xmlns="http://www.w3.org/2000/svg" viewBox="0 0 42.5197 42.5197"><g id="LINE"><path d="M33.7008,3.622v6.9291c0,.4349,.3525,.7874,.7874,.7874s.7874-.3525,.7874-.7874V3.622c0-2.0004,1.6216-3.622,3.622-3.622s3.622,1.6216,3.622,3.622V12.7559c0,.7828-.6346,1.4173-1.4173,1.4173s-1.4173-.6346-1.4173-1.4173V3.622c0-.4349-.3525-.7874-.7874-.7874s-.7874,.3525-.7874,.7874v6.9291c0,2.0004-1.6216,3.622-3.622,3.622s-3.622-1.6216-3.622-3.622V3.622c0-.4349-.3525-.7874-.7874-.7874s-.7874,.3525-.7874,.7874V38.8976c0,2.0004-1.6216,3.622-3.622,3.622s-3.622-1.6216-3.622-3.622V3.622c0-.4349-.3525-.7874-.7874-.7874s-.7874,.3525-.7874,.7874V38.8976c0,2.0004-1.6216,3.622-3.622,3.622s-3.622-1.6216-3.622-3.622V3.622c0-.4349-.3525-.7874-.7874-.7874s-.7874,.3525-.7874,.7874v6.9291c0,2.0004-1.6216,3.622-3.622,3.622s-3.622-1.6216-3.622-3.622V3.622c0-.4349-.3525-.7874-.7874-.7874s-.7874,.3525-.7874,.7874V12.7559c0,.7828-.6346,1.4173-1.4173,1.4173s-1.4173-.6346-1.4173-1.4173V3.622C0,1.6216,1.6216,0,3.622,0s3.622,1.6216,3.622,3.622v6.9291c0,.4349,.3525,.7874,.7874,.7874s.7874-.3525,.7874-.7874V3.622c0-2.0004,1.6216-3.622,3.622-3.622s3.622,1.6216,3.622,3.622V38.8976c0,.4349,.3525,.7874,.7874,.7874s.7874-.3525,.7874-.7874V3.622c0-2.0004,1.6216-3.622,3.622-3.622s3.622,1.6216,3.622,3.622V38.8976c0,.4349,.3525,.7874,.7874,.7874s.7874-.3525,.7874-.7874V3.622c0-2.0004,1.6216-3.622,3.622-3.622s3.622,1.6216,3.622,3.622Z"/></g></svg>