<?xml version="1.0" encoding="UTF-8"?><svg xmlns="http://www.w3.org/2000/svg" viewBox="0 0 850.3937 1031.7398"><g id="Layer_10"><g id="LINE"><path d="M674.0127,72.4405V211.0235c0,8.6981,7.0501,15.7481,15.7481,15.7481s15.7481-7.05,15.7481-15.7481V72.4405c0-40.0083,32.4323-72.4405,72.4405-72.4405s72.4405,32.4322,72.4405,72.4405V255.1198c0,15.6561-12.6921,28.3462-28.3462,28.3462s-28.3462-12.6921-28.3462-28.3462V72.4405c0-8.6981-7.0501-15.7481-15.7481-15.7481s-15.7481,7.05-15.7481,15.7481V211.0235c0,40.0083-32.4323,72.4405-72.4405,72.4405s-72.4405-32.4322-72.4405-72.4405V72.4405c0-8.6981-7.0501-15.7481-15.7481-15.7481s-15.7481,7.05-15.7481,15.7481V777.9575c0,40.0083-32.4322,72.4405-72.4405,72.4405s-72.4405-32.4323-72.4405-72.4405V72.4405c0-8.6981-7.0501-15.7481-15.7481-15.7481s-15.7481,7.05-15.7481,15.7481V777.9575c0,40.0083-32.4322,72.4405-72.4405,72.4405s-72.4405-32.4323-72.4405-72.4405V72.4405c0-8.6981-7.05-15.7481-15.7481-15.7481s-15.7481,7.05-15.7481,15.7481V211.0235c0,40.0083-32.4322,72.4405-72.4405,72.4405s-72.4405-32.4322-72.4405-72.4405V72.4405c0-8.6981-7.05-15.7481-15.7481-15.7481s-15.7481,7.05-15.7481,15.7481V255.1198c0,15.6561-12.6921,28.3462-28.3462,28.3462S0,270.7739,0,255.1198V72.4405C-.0081,32.4322,32.4241,0,72.4324,0s72.4405,32.4322,72.4405,72.4405V211.0235c0,8.6981,7.05,15.7481,15.7481,15.7481s15.7481-7.05,15.7481-15.7481V72.4405C176.3691,32.4322,208.8014,0,248.8097,0s72.4405,32.4322,72.4405,72.4405V777.9575c0,8.698,7.0501,15.7481,15.7481,15.7481s15.7481-7.0501,15.7481-15.7481V72.4405C352.7464,32.4322,385.1786,0,425.1869,0s72.4405,32.4322,72.4405,72.4405V777.9575c0,8.698,7.0501,15.7481,15.7481,15.7481s15.7481-7.0501,15.7481-15.7481V72.4405c0-40.0083,32.4322-72.4405,72.4405-72.4405s72.4405,32.4322,72.4405,72.4405h.0081Z"/></g></g><g id="I"><path d="M808.5172,1028.7906v-137.2266h25.5859v137.2266h-25.5859Z"/></g><g id="R"><path d="M676.7789,1028.7906v-137.2266h53.2422c9.7266,0,18.1836,1.6406,25.3711,4.9414s12.7539,8.0273,16.6797,14.1602c3.9062,6.1523,5.8789,13.4766,5.8789,21.9531,0,6.7969-1.4062,12.8125-4.2188,18.0078s-6.6797,9.4531-11.6211,12.832-10.625,5.7227-17.1094,7.1094l39.9023,58.2227h-30.6836l-35.3906-53.7109h-16.4648v53.7109h-25.5859Zm25.5859-74.6094h23.9258c8.1055,0,14.4336-1.6797,19.0039-5.0781,4.5898-3.3984,6.875-8.4375,6.875-15.0977,0-6.7969-2.0898-12.0117-6.2305-15.6445s-10.2734-5.4297-18.3789-5.4297h-25.1953v41.25Z"/></g><g id="O2"><path d="M578.1851,1031.7398c-10.3906,0-20-1.8164-28.8281-5.4492s-16.5039-8.6719-23.0273-15.1562c-6.543-6.4453-11.6211-14.0234-15.2539-22.7344-3.6133-8.6719-5.4297-18.0859-5.4297-28.2227,0-10.1953,1.8164-19.6289,5.4297-28.3398,3.6328-8.6719,8.7109-16.25,15.2539-22.7344,6.5234-6.4648,14.1992-11.5039,23.0273-15.0977s18.4375-5.3906,28.8281-5.3906,19.9805,1.8359,28.8086,5.4883c8.8281,3.6719,16.5039,8.75,23.0469,15.293,6.5234,6.543,11.6211,14.1211,15.2734,22.793,3.6719,8.6719,5.4883,17.9883,5.4883,27.9883,0,10.1367-1.8164,19.5508-5.4883,28.2227-3.6523,8.7109-8.75,16.2891-15.2734,22.7344-6.543,6.4844-14.2188,11.5234-23.0469,15.1562s-18.418,5.4492-28.8086,5.4492Zm0-24.0234c6.5234,0,12.5781-1.1328,18.125-3.3789,5.5469-2.2656,10.4102-5.4688,14.5508-9.6094,4.1602-4.1406,7.3828-9.1406,9.707-15s3.4766-12.3633,3.4766-19.5508c0-9.6094-2.0117-17.9688-6.0156-25.0977-4.0234-7.1094-9.4922-12.6562-16.4258-16.5625-6.9336-3.9258-14.7266-5.8984-23.418-5.8984-6.4844,0-12.5,1.1328-18.0469,3.3984s-10.4102,5.4688-14.5508,9.6094c-4.1602,4.1406-7.3828,9.1406-9.707,15-2.3242,5.8398-3.4766,12.3633-3.4766,19.5508,0,9.5898,2.0117,17.9688,6.0156,25.0977,4.0234,7.1094,9.4922,12.6367,16.4258,16.5625,6.9336,3.9062,14.707,5.8789,23.3398,5.8789Z"/></g><g id="T3"><path d="M428.5758,1028.7906v-113.9062h-37.9297v-23.3203h101.5625v23.3203h-37.9297v113.9062h-25.7031Z"/></g><g id="T2"><path d="M317.6187,1028.7906v-113.9062h-37.9297v-23.3203h101.5527v23.3203h-37.9395v113.9062h-25.6836Z"/></g><g id="O1"><path d="M193.6148,1031.7398c-10.3906,0-20-1.8164-28.8184-5.4492s-16.5039-8.6719-23.0371-15.1562c-6.5332-6.4453-11.6113-14.0234-15.2441-22.7344-3.623-8.6719-5.4395-18.0859-5.4395-28.2227,0-10.1953,1.8164-19.6289,5.4395-28.3398,3.6328-8.6719,8.7109-16.25,15.2441-22.7344,6.5332-6.4648,14.2188-11.5039,23.0371-15.0977s18.4277-5.3906,28.8184-5.3906,20,1.8359,28.8184,5.4883c8.8281,3.6719,16.5039,8.75,23.0371,15.293s11.6309,14.1211,15.293,22.793,5.4883,17.9883,5.4883,27.9883c0,10.1367-1.8262,19.5508-5.4883,28.2227-3.6621,8.7109-8.7598,16.2891-15.293,22.7344-6.5332,6.4844-14.209,11.5234-23.0371,15.1562-8.8184,3.6328-18.4277,5.4492-28.8184,5.4492Zm0-24.0234c6.5332,0,12.5781-1.1328,18.1348-3.3789,5.5566-2.2656,10.4102-5.4688,14.5605-9.6094s7.3828-9.1406,9.6973-15c2.3242-5.8594,3.4863-12.3633,3.4863-19.5508,0-9.6094-2.0117-17.9688-6.0352-25.0977-4.0137-7.1094-9.4922-12.6562-16.416-16.5625-6.9238-3.9258-14.7363-5.8984-23.4277-5.8984-6.4648,0-12.4805,1.1328-18.0371,3.3984s-10.4004,5.4688-14.5508,9.6094-7.3926,9.1406-9.707,15c-2.3242,5.8398-3.4766,12.3633-3.4766,19.5508,0,9.5898,2.002,17.9688,6.0254,25.0977,4.0137,7.1094,9.4922,12.6367,16.416,16.5625,6.9238,3.9062,14.707,5.8789,23.3301,5.8789Z"/></g><g id="T1"><path d="M44.0347,1028.7906v-113.9062H6.1051v-23.3203H107.6578v23.3203h-37.9395v113.9062h-25.6836Z"/></g></svg>